<?xml version="1.0" encoding="UTF-8"?>
<svg width="16px" height="16px" viewBox="0 0 16 16" version="1.1" xmlns="http://www.w3.org/2000/svg" xmlns:xlink="http://www.w3.org/1999/xlink">
    <title>编组 18</title>
    <g id="改版" stroke="none" stroke-width="1" fill="none" fill-rule="evenodd">
        <g id="未扫描" transform="translate(-970.000000, -12.000000)">
            <g id="编组-25" transform="translate(19.014244, 8.000000)">
                <g id="编组-18" transform="translate(950.985756, 4.000000)">
                    <g id="编组-17" transform="translate(0.750000, 2.750000)" fill="#FFFFFF" fill-rule="nonzero">
                        <path d="M11.25,0.2 L11.25,1.05 C11.25,1.16045695 11.1604569,1.25 11.05,1.25 L0.2,1.25 C0.08954305,1.25 1.52304953e-16,1.16045695 0,1.05 L0,0.2 C-1.3527075e-17,0.08954305 0.08954305,1.03557339e-16 0.2,0 L11.05,0 C11.1604569,-1.00134541e-15 11.25,0.08954305 11.25,0.2 Z" id="直线-15备份-3"></path>
                        <path d="M14.1666667,4.575 L14.1666667,5.425 C14.1666667,5.53545695 14.0771236,5.625 13.9666667,5.625 L3.11666667,5.625 C3.00620972,5.625 2.91666667,5.53545695 2.91666667,5.425 L2.91666667,4.575 C2.91666667,4.46454305 3.00620972,4.375 3.11666667,4.375 L13.9666667,4.375 C14.0771236,4.375 14.1666667,4.46454305 14.1666667,4.575 Z" id="直线-15备份-4"></path>
                        <path d="M11.6666667,8.95 L11.6666667,9.8 C11.6666667,9.91045695 11.5771236,10 11.4666667,10 L0.616666667,10 C0.506209717,10 0.416666667,9.91045695 0.416666667,9.8 L0.416666667,8.95 C0.416666667,8.83954305 0.506209717,8.75 0.616666667,8.75 L11.4666667,8.75 C11.5771236,8.75 11.6666667,8.83954305 11.6666667,8.95 Z" id="直线-15备份-5"></path>
                    </g>
                    <rect id="矩形" stroke="#64ABF5" opacity="0.001" x="0.5" y="0.5" width="15" height="15"></rect>
                </g>
            </g>
        </g>
    </g>
</svg>