<?xml version="1.0" encoding="UTF-8"?>
<svg width="32px" height="32px" viewBox="0 0 32 32" version="1.1" xmlns="http://www.w3.org/2000/svg" xmlns:xlink="http://www.w3.org/1999/xlink">
    <title>设置-nor</title>
    <g id="改版" stroke="none" stroke-width="1" fill="none" fill-rule="evenodd">
        <g id="设置-nor">
            <rect id="矩形备份-62" stroke="#FFF4EF" opacity="0.01" x="0.5" y="0.5" width="31" height="31" rx="5"></rect>
            <g id="编组-50" transform="translate(4.000000, 4.000000)">
                <rect id="矩形备份-46" stroke="#FFFFFF" opacity="0.01" x="0.5" y="0.5" width="23" height="23"></rect>
                <g id="编组-9备份-3" transform="translate(4.000000, 4.000000)" fill-rule="nonzero">
                    <path d="M14.9319841,10.01875 L13.7641269,9.02053571 C13.8194841,8.68125 13.8480555,8.33482143 13.8480555,7.99017857 C13.8480555,7.64553571 13.8194841,7.29732143 13.7641269,6.95982143 L14.9319841,5.96160714 C15.1123412,5.80803571 15.1784127,5.55803571 15.0980555,5.33303571 L15.0819841,5.28660714 C14.7587698,4.38660714 14.2819841,3.55803571 13.6605555,2.82767857 L13.6284127,2.79017857 C13.4748412,2.60982143 13.2266269,2.54196429 13.0016269,2.62053571 L11.5516269,3.13660714 C11.0159127,2.69732143 10.4194841,2.35089286 9.77305551,2.10982143 L9.49269837,0.59375 C9.44984123,0.359821429 9.26591266,0.177678571 9.03198409,0.134821429 L8.9837698,0.125892857 C8.05519837,-0.0419642857 7.07662694,-0.0419642857 6.14805551,0.125892857 L6.09984123,0.134821429 C5.86591266,0.177678571 5.68198409,0.359821429 5.63912694,0.59375 L5.35698409,2.11696429 C4.71591266,2.35982143 4.12305551,2.70446429 3.59091266,3.14017857 L2.13019837,2.62053571 C1.90698409,2.54196429 1.65698409,2.60803571 1.50341266,2.79017857 L1.4712698,2.82767857 C0.849841228,3.56160714 0.373055514,4.38839286 0.0498412284,5.28660714 L0.0337697998,5.33303571 C-0.046587343,5.55625 0.0194840856,5.80625 0.199841228,5.96160714 L1.38198409,6.97053571 C1.32662694,7.30625 1.29984123,7.64910714 1.29984123,7.98839286 C1.29984123,8.33125 1.32662694,8.67410714 1.38198409,9.00625 L0.203412657,10.0151786 C0.0230555141,10.16875 -0.0430159144,10.41875 0.0373412284,10.64375 L0.053412657,10.6901786 C0.376626943,11.5883929 0.853412657,12.41875 1.47484123,13.1491071 L1.50698409,13.1866071 C1.66055551,13.3669643 1.9087698,13.4348214 2.1337698,13.35625 L3.59448409,12.8366071 C4.12662694,13.2741071 4.71948409,13.6205357 5.36055551,13.8598214 L5.64269837,15.3830357 C5.68555551,15.6169643 5.86948409,15.7991071 6.10341266,15.8419643 L6.15162694,15.8508929 C6.61769837,15.9348214 7.09269837,15.9776786 7.56948409,15.9776786 C8.0462698,15.9776786 8.52305551,15.9348214 8.98734123,15.8508929 L9.03555551,15.8419643 C9.26948409,15.7991071 9.45341266,15.6169643 9.4962698,15.3830357 L9.77662694,13.8669643 C10.4230555,13.6241071 11.0194841,13.2794643 11.5551984,12.8401786 L13.0051984,13.35625 C13.2284127,13.4348214 13.4784127,13.36875 13.6319841,13.1866071 L13.6641269,13.1491071 C14.2855555,12.4151786 14.7623412,11.5883929 15.0855555,10.6901786 L15.1016269,10.64375 C15.1784127,10.4223214 15.1123412,10.1741071 14.9319841,10.01875 Z" id="路径" fill="#F26521"></path>
                    <g id="编组-7" transform="translate(4.571429, 4.571429)">
                        <path d="M3.13928571,6.27857143 C1.40535714,6.27857143 0,4.87321429 0,3.13928571 C0,1.40535714 1.40535714,0 3.13928571,0 C4.87321429,0 6.27857143,1.40535714 6.27857143,3.13928571 C6.27857143,4.87321429 4.87321429,6.27857143 3.13928571,6.27857143 Z" id="路径" fill="#FFFFFF"></path>
                        <path d="M3.14107143,1.14285714 C2.60714286,1.14285714 2.10714286,1.35 1.72857143,1.72857143 C1.35178571,2.10714286 1.14285714,2.60714286 1.14285714,3.14107143 C1.14285714,3.675 1.35178571,4.175 1.72857143,4.55357143 C2.10714286,4.93035714 2.60714286,5.13928571 3.14107143,5.13928571 C3.675,5.13928571 4.175,4.93035714 4.55357143,4.55357143 C4.93035714,4.175 5.13928571,3.675 5.13928571,3.14107143 C5.13928571,2.60714286 4.93035714,2.10714286 4.55357143,1.72857143 C4.175,1.35 3.675,1.14285714 3.14107143,1.14285714 Z" id="路径" fill="#FCD2BE"></path>
                    </g>
                </g>
            </g>
            <g id="编组-49备份" transform="translate(4.000000, 4.000000)">
                <rect id="矩形备份-47" stroke="#FFFFFF" opacity="0.01" x="0.5" y="0.5" width="23" height="23"></rect>
                <g id="编组-9备份-5" transform="translate(4.000000, 4.000000)" fill-rule="nonzero">
                    <path d="M14.9319841,10.01875 L13.7641269,9.02053571 C13.8194841,8.68125 13.8480555,8.33482143 13.8480555,7.99017857 C13.8480555,7.64553571 13.8194841,7.29732143 13.7641269,6.95982143 L14.9319841,5.96160714 C15.1123412,5.80803571 15.1784127,5.55803571 15.0980555,5.33303571 L15.0819841,5.28660714 C14.7587698,4.38660714 14.2819841,3.55803571 13.6605555,2.82767857 L13.6284127,2.79017857 C13.4748412,2.60982143 13.2266269,2.54196429 13.0016269,2.62053571 L11.5516269,3.13660714 C11.0159127,2.69732143 10.4194841,2.35089286 9.77305551,2.10982143 L9.49269837,0.59375 C9.44984123,0.359821429 9.26591266,0.177678571 9.03198409,0.134821429 L8.9837698,0.125892857 C8.05519837,-0.0419642857 7.07662694,-0.0419642857 6.14805551,0.125892857 L6.09984123,0.134821429 C5.86591266,0.177678571 5.68198409,0.359821429 5.63912694,0.59375 L5.35698409,2.11696429 C4.71591266,2.35982143 4.12305551,2.70446429 3.59091266,3.14017857 L2.13019837,2.62053571 C1.90698409,2.54196429 1.65698409,2.60803571 1.50341266,2.79017857 L1.4712698,2.82767857 C0.849841228,3.56160714 0.373055514,4.38839286 0.0498412284,5.28660714 L0.0337697998,5.33303571 C-0.046587343,5.55625 0.0194840856,5.80625 0.199841228,5.96160714 L1.38198409,6.97053571 C1.32662694,7.30625 1.29984123,7.64910714 1.29984123,7.98839286 C1.29984123,8.33125 1.32662694,8.67410714 1.38198409,9.00625 L0.203412657,10.0151786 C0.0230555141,10.16875 -0.0430159144,10.41875 0.0373412284,10.64375 L0.053412657,10.6901786 C0.376626943,11.5883929 0.853412657,12.41875 1.47484123,13.1491071 L1.50698409,13.1866071 C1.66055551,13.3669643 1.9087698,13.4348214 2.1337698,13.35625 L3.59448409,12.8366071 C4.12662694,13.2741071 4.71948409,13.6205357 5.36055551,13.8598214 L5.64269837,15.3830357 C5.68555551,15.6169643 5.86948409,15.7991071 6.10341266,15.8419643 L6.15162694,15.8508929 C6.61769837,15.9348214 7.09269837,15.9776786 7.56948409,15.9776786 C8.0462698,15.9776786 8.52305551,15.9348214 8.98734123,15.8508929 L9.03555551,15.8419643 C9.26948409,15.7991071 9.45341266,15.6169643 9.4962698,15.3830357 L9.77662694,13.8669643 C10.4230555,13.6241071 11.0194841,13.2794643 11.5551984,12.8401786 L13.0051984,13.35625 C13.2284127,13.4348214 13.4784127,13.36875 13.6319841,13.1866071 L13.6641269,13.1491071 C14.2855555,12.4151786 14.7623412,11.5883929 15.0855555,10.6901786 L15.1016269,10.64375 C15.1784127,10.4223214 15.1123412,10.1741071 14.9319841,10.01875 Z" id="路径" fill="#BCBCBC"></path>
                    <g id="编组-7" transform="translate(4.571429, 4.571429)">
                        <path d="M3.13928571,6.27857143 C1.40535714,6.27857143 0,4.87321429 0,3.13928571 C0,1.40535714 1.40535714,0 3.13928571,0 C4.87321429,0 6.27857143,1.40535714 6.27857143,3.13928571 C6.27857143,4.87321429 4.87321429,6.27857143 3.13928571,6.27857143 Z" id="路径" fill="#FFFFFF"></path>
                        <path d="M3.14107143,1.14285714 C2.60714286,1.14285714 2.10714286,1.35 1.72857143,1.72857143 C1.35178571,2.10714286 1.14285714,2.60714286 1.14285714,3.14107143 C1.14285714,3.675 1.35178571,4.175 1.72857143,4.55357143 C2.10714286,4.93035714 2.60714286,5.13928571 3.14107143,5.13928571 C3.675,5.13928571 4.175,4.93035714 4.55357143,4.55357143 C4.93035714,4.175 5.13928571,3.675 5.13928571,3.14107143 C5.13928571,2.60714286 4.93035714,2.10714286 4.55357143,1.72857143 C4.175,1.35 3.675,1.14285714 3.14107143,1.14285714 Z" id="路径" fill="#BCBCBC"></path>
                    </g>
                </g>
            </g>
        </g>
    </g>
</svg>