<?xml version="1.0" encoding="UTF-8"?>
<svg width="28px" height="28px" viewBox="0 0 28 28" version="1.1" xmlns="http://www.w3.org/2000/svg" xmlns:xlink="http://www.w3.org/1999/xlink">
    <title>展开</title>
    <defs>
        <filter color-interpolation-filters="auto" id="filter-1">
            <feColorMatrix in="SourceGraphic" type="matrix" values="0 0 0 0 0.200000 0 0 0 0 0.200000 0 0 0 0 0.200000 0 0 0 1.000000 0"></feColorMatrix>
        </filter>
    </defs>
    <g id="改版" stroke="none" stroke-width="1" fill="none" fill-rule="evenodd">
        <g id="设置-系统设置" transform="translate(-145.000000, -106.000000)">
            <g id="展开" transform="translate(145.000000, 106.000000)">
                <circle id="椭圆形" fill="#F2F2F2" cx="14" cy="14" r="14"></circle>
                <g filter="url(#filter-1)" id="outdent-outlined">
                    <g transform="translate(7.000000, 6.000000)">
                        <rect id="矩形" fill="#000000" fill-rule="nonzero" opacity="0" x="0" y="0" width="16" height="16"></rect>
                        <path d="M6.375,6.90625 L13.875,6.90625 C13.94375,6.90625 14,6.85 14,6.78125 L14,5.90625 C14,5.8375 13.94375,5.78125 13.875,5.78125 L6.375,5.78125 C6.30625,5.78125 6.25,5.8375 6.25,5.90625 L6.25,6.78125 C6.25,6.85 6.30625,6.90625 6.375,6.90625 Z M6.25,10.09375 C6.25,10.1625 6.30625,10.21875 6.375,10.21875 L13.875,10.21875 C13.94375,10.21875 14,10.1625 14,10.09375 L14,9.21875 C14,9.15 13.94375,9.09375 13.875,9.09375 L6.375,9.09375 C6.30625,9.09375 6.25,9.15 6.25,9.21875 L6.25,10.09375 Z M14.125,2.5 L1.875,2.5 C1.80625,2.5 1.75,2.55625 1.75,2.625 L1.75,3.5 C1.75,3.56875 1.80625,3.625 1.875,3.625 L14.125,3.625 C14.19375,3.625 14.25,3.56875 14.25,3.5 L14.25,2.625 C14.25,2.55625 14.19375,2.5 14.125,2.5 Z M14.125,12.375 L1.875,12.375 C1.80625,12.375 1.75,12.43125 1.75,12.5 L1.75,13.375 C1.75,13.44375 1.80625,13.5 1.875,13.5 L14.125,13.5 C14.19375,13.5 14.25,13.44375 14.25,13.375 L14.25,12.5 C14.25,12.43125 14.19375,12.375 14.125,12.375 Z M1.803125,8.1078125 L4.2453125,10.03125 C4.3359375,10.103125 4.4703125,10.0390625 4.4703125,9.9234375 L4.4703125,6.0765625 C4.4703125,5.9609375 4.3375,5.896875 4.2453125,5.96875 L1.803125,7.8921875 C1.7328125,7.946875 1.7328125,8.053125 1.803125,8.1078125 Z" id="形状" fill="#333333" fill-rule="nonzero"></path>
                    </g>
                </g>
            </g>
        </g>
    </g>
</svg>